<svg xmlns="http://www.w3.org/2000/svg" style="isolation:isolate" viewBox="0 0 99 35"><linearGradient id="b" x1=".5" x2=".5" y1="0" y2="1"><stop offset="0%" stop-color="#2b7"/><stop offset="99.2%" stop-color="#177"/></linearGradient><path fill="none" stroke="url(#b)" stroke-linecap="round" stroke-linejoin="round" stroke-width="2" d="M36 28v6l6-6m7 6v-6l6 6v-6m12 0v6l3-3v3l3-3v-3m-27 6v-6l-6 6h3m37 0v-6l-6 6h3m21 0h-6v-6h6m-15 6v-6h6v3h-3l3 3m-25-6h-6v6h6v-3h-3m34 0h3"/><path fill="none" stroke="#666" stroke-linecap="round" stroke-linejoin="round" stroke-miterlimit="3" d="M27.5 28.5v3h1c.6 0 1-.4 1-1h0c0-.6-.4-1-1-1h-1m4 4h0c.6 0 1-.4 1-1v-3 2h-1a1 1 0 01-1-1v-1"/><linearGradient id="c" x1=".5" x2=".5" y1="0" y2="1"><stop offset="0%" stop-color="#57e"/><stop offset="100%" stop-color="#327"/></linearGradient><path fill="none" stroke="url(#c)" stroke-linecap="round" stroke-linejoin="round" stroke-width="6" d="M12.4 21l8.7-9h-9l9-9H3l.1 18m39 0V3L24 21h9M69 3H51v9h18v9H51M96 3H78v18h18m-9-9h9"/></svg>
